<svg xmlns="http://www.w3.org/2000/svg" width="35" height="34" fill="none"><path d="M4.91 6.224l-.38-.368a.986.986 0 00-1.36 0l-.01.009a.91.91 0 000 1.322l.379.369a.976.976 0 001.361 0l.01-.01a.91.91 0 000-1.322zM1.954 12.23H.963a.945.945 0 00-.963.936v.009c0 .52.428.935.963.935h.981c.545.01.973-.406.973-.925v-.01a.947.947 0 00-.963-.944zM10.704 2.833h-.01c-.544 0-.972.416-.972.935v.907c0 .52.428.935.963.935h.01c.544.01.972-.406.972-.926v-.916a.945.945 0 00-.963-.935zM18.23 5.865a.998.998 0 00-1.372-.01l-.379.369a.91.91 0 000 1.322l.01.01a.976.976 0 001.361 0l.38-.369a.91.91 0 000-1.322zM10.694 7.508c-3.218 0-5.833 2.54-5.833 5.667 0 2.026 1.099 3.807 2.749 4.808.789-2.22 2.96-3.816 5.515-3.816.1 0 .2.002.3.007a7.766 7.766 0 012.393-3.707c-.99-1.762-2.915-2.959-5.124-2.959zM3.16 20.485a.989.989 0 001.37 0l.38-.368a.919.919 0 000-1.323l-.01-.009a.988.988 0 00-1.37 0l-.38.368a.93.93 0 00.01 1.332zM10.208 29.75h18.959c3.221 0 5.833-2.537 5.833-5.667 0-2.657-1.884-4.888-4.425-5.5.033-.287.05-.579.05-.875 0-4.303-3.591-7.791-8.02-7.791-3.675 0-6.772 2.4-7.722 5.674a6.08 6.08 0 00-.3-.008c-3.221 0-5.833 2.537-5.833 5.667 0 .08.002.16.005.24-1.702.582-2.922 2.158-2.922 4.01 0 2.347 1.96 4.25 4.375 4.25z" fill="#fff"/></svg>